<?xml version="1.0" encoding="utf-8"?>
<!-- Svg Vector Icons : http://www.onlinewebfonts.com/icon -->
<!DOCTYPE svg PUBLIC "-//W3C//DTD SVG 1.1//EN" "http://www.w3.org/Graphics/SVG/1.1/DTD/svg11.dtd">
<svg version="1.1" xmlns="http://www.w3.org/2000/svg" xmlns:xlink="http://www.w3.org/1999/xlink" x="0px" y="0px" viewBox="0 0 1000 1000" enable-background="new 0 0 1000 1000" xml:space="preserve">
<metadata> Svg Vector Icons : http://www.onlinewebfonts.com/icon </metadata>
<g><path d="M498.5,23.3C228.8,23.3,10,242.1,10,511.8c0,215.8,140.9,398.6,332.7,464.5c24,3,33-12,33-24c0-12,0-42,0-83.9c-134.9,30-164.8-65.9-164.8-65.9c-21-56.9-53.9-71.9-53.9-71.9c-45-30,3-30,3-30c48,3,74.9,50.9,74.9,50.9c45,74.9,113.9,53.9,140.9,42c3-33,18-53.9,30-65.9c-107.9-12-221.8-53.9-221.8-242.8c0-53.9,18-95.9,50.9-131.9c-6-12-21-62.9,6-128.9c0,0,42-12,134.9,50.9c39-12,80.9-15,122.9-15s83.9,6,122.9,15c92.9-62.9,134.9-50.9,134.9-50.9c27,65.9,9,116.9,6,128.9c30,33,50.9,77.9,50.9,131.9c0,188.8-113.9,227.8-221.8,239.8c18,15,33,45,33,89.9c0,65.9,0,116.9,0,134.9c0,12,9,27,33,24C852.1,907.4,990,724.6,990,508.8C987,242.1,768.2,23.3,498.5,23.3z"/></g>
</svg>